<svg xmlns="http://www.w3.org/2000/svg" viewBox="0 0 200 200" width="200" height="200">
  <!-- Outermost ring — Blue segments -->
  <path d="M100,8 A92,92 0 0,1 177,55" stroke="#1565C0" stroke-width="18" fill="none" stroke-linecap="round"/>
  <path d="M180,72 A92,92 0 0,1 180,128" stroke="#1976D2" stroke-width="18" fill="none" stroke-linecap="round"/>
  <path d="M177,145 A92,92 0 0,1 100,192" stroke="#1565C0" stroke-width="18" fill="none" stroke-linecap="round"/>
  <path d="M83,191 A92,92 0 0,1 23,145" stroke="#1976D2" stroke-width="18" fill="none" stroke-linecap="round"/>
  <path d="M20,128 A92,92 0 0,1 20,72" stroke="#1565C0" stroke-width="18" fill="none" stroke-linecap="round"/>
  <path d="M23,55 A92,92 0 0,1 83,9" stroke="#1976D2" stroke-width="18" fill="none" stroke-linecap="round"/>

  <!-- Second ring — Red segments -->
  <path d="M100,26 A74,74 0 0,1 160,55" stroke="#C62828" stroke-width="16" fill="none" stroke-linecap="round"/>
  <path d="M163,70 A74,74 0 0,1 163,130" stroke="#D32F2F" stroke-width="16" fill="none" stroke-linecap="round"/>
  <path d="M160,145 A74,74 0 0,1 100,174" stroke="#C62828" stroke-width="16" fill="none" stroke-linecap="round"/>
  <path d="M84,173 A74,74 0 0,1 40,145" stroke="#D32F2F" stroke-width="16" fill="none" stroke-linecap="round"/>
  <path d="M37,130 A74,74 0 0,1 37,70" stroke="#C62828" stroke-width="16" fill="none" stroke-linecap="round"/>
  <path d="M40,55 A74,74 0 0,1 84,27" stroke="#D32F2F" stroke-width="16" fill="none" stroke-linecap="round"/>

  <!-- Third ring — Yellow/Gold segments -->
  <path d="M100,44 A56,56 0 0,1 143,61" stroke="#F9A825" stroke-width="14" fill="none" stroke-linecap="round"/>
  <path d="M147,75 A56,56 0 0,1 147,125" stroke="#FBC02D" stroke-width="14" fill="none" stroke-linecap="round"/>
  <path d="M143,139 A56,56 0 0,1 100,156" stroke="#F9A825" stroke-width="14" fill="none" stroke-linecap="round"/>
  <path d="M86,155 A56,56 0 0,1 57,139" stroke="#FBC02D" stroke-width="14" fill="none" stroke-linecap="round"/>
  <path d="M53,125 A56,56 0 0,1 53,75" stroke="#F9A825" stroke-width="14" fill="none" stroke-linecap="round"/>
  <path d="M57,61 A56,56 0 0,1 86,45" stroke="#FBC02D" stroke-width="14" fill="none" stroke-linecap="round"/>

  <!-- Innermost ring — Dark Red/Maroon segments -->
  <path d="M100,62 A38,38 0 0,1 126,74" stroke="#880E4F" stroke-width="12" fill="none" stroke-linecap="round"/>
  <path d="M132,83 A38,38 0 0,1 132,117" stroke="#AD1457" stroke-width="12" fill="none" stroke-linecap="round"/>
  <path d="M126,126 A38,38 0 0,1 100,138" stroke="#880E4F" stroke-width="12" fill="none" stroke-linecap="round"/>
  <path d="M86,137 A38,38 0 0,1 74,126" stroke="#AD1457" stroke-width="12" fill="none" stroke-linecap="round"/>
  <path d="M68,117 A38,38 0 0,1 68,83" stroke="#880E4F" stroke-width="12" fill="none" stroke-linecap="round"/>
  <path d="M74,74 A38,38 0 0,1 86,63" stroke="#AD1457" stroke-width="12" fill="none" stroke-linecap="round"/>

  <!-- White center circle -->
  <circle cx="100" cy="100" r="26" fill="white"/>

  <!-- IBDIC text -->
  <text x="100" y="105" font-family="Arial, sans-serif" font-size="13" font-weight="900" fill="#0D47A1" text-anchor="middle" letter-spacing="0.5">IBDIC</text>
</svg>
